<?xml version="1.0" standalone="no"?>
<!DOCTYPE svg PUBLIC "-//W3C//DTD SVG 20010904//EN"
 "http://www.w3.org/TR/2001/REC-SVG-20010904/DTD/svg10.dtd">
<svg version="1.0" xmlns="http://www.w3.org/2000/svg"
 width="666.000000pt" height="833.000000pt" viewBox="0 0 666.000000 833.000000"
 preserveAspectRatio="xMidYMid meet">

<g transform="translate(0.000000,833.000000) scale(0.100000,-0.100000)"
fill="#205757" stroke="none">
<path d="M3146 8318 c-146 -16 -469 -86 -641 -138 -385 -116 -797 -299 -1000
-445 -350 -251 -835 -754 -1006 -1042 -208 -353 -409 -892 -459 -1231 -64
-440 -40 -1087 54 -1460 152 -596 618 -1373 1059 -1763 248 -220 684 -509
1007 -669 781 -386 1923 -363 2827 56 682 316 1376 1020 1561 1585 63 191 112
435 112 556 0 64 -2 74 -17 71 -11 -2 -21 -22 -30 -64 -24 -109 -206 -456
-331 -633 -50 -71 -212 -254 -219 -247 -2 2 19 50 47 106 126 251 234 697 295
1210 21 183 42 707 28 721 -13 13 -38 -48 -153 -385 -119 -349 -256 -656 -369
-829 -56 -84 -70 -98 -102 -95 -46 4 -66 -17 -259 -261 -384 -486 -997 -868
-1600 -997 -305 -65 -789 -32 -1120 76 -51 17 -168 66 -260 109 -92 44 -186
85 -211 91 -176 46 -626 416 -817 672 -202 270 -376 618 -461 922 -60 214 -75
353 -75 711 -1 260 2 342 17 435 39 252 124 499 276 800 48 96 102 211 120
255 38 96 111 188 306 387 155 157 252 237 417 348 497 331 1125 456 1750 350
720 -123 1352 -532 1760 -1140 94 -140 125 -180 141 -180 27 0 -40 130 -137
265 -76 106 -212 270 -301 364 -226 238 -620 488 -1067 677 -198 84 -327 144
-383 178 l-50 30 -285 4 c-324 4 -623 -10 -785 -38 -60 -11 -186 -44 -278 -75
-92 -30 -182 -55 -199 -55 -17 0 -75 -20 -129 -45 -109 -50 -139 -55 -139 -26
0 66 311 230 621 329 201 64 448 99 759 108 246 6 361 14 355 23 -2 4 -37 13
-77 20 -107 19 -111 28 -17 34 201 12 576 -67 881 -186 270 -106 680 -337 933
-527 192 -144 458 -466 667 -808 119 -194 188 -297 188 -281 0 37 -153 323
-295 549 -53 83 -41 118 22 67 55 -45 63 -49 63 -40 0 34 -413 473 -631 669
-529 478 -907 651 -1804 828 -332 65 -402 72 -559 54z m2431 -976 c134 -113
426 -432 410 -448 -11 -11 -81 52 -217 193 -133 138 -270 289 -270 298 0 14
25 0 77 -43z"/>
</g>
</svg>
